<svg width="20" height="20" viewBox="0 0 20 20" fill="none" xmlns="http://www.w3.org/2000/svg">
<path fill-rule="evenodd" clip-rule="evenodd" d="M10 13.3333C9.81001 13.3333 9.62084 13.2691 9.46667 13.1399L4.46667 8.97328C4.11334 8.67911 4.06501 8.15328 4.36001 7.79995C4.65417 7.44661 5.17917 7.39911 5.53334 7.69328L10.0092 11.4233L14.4775 7.82745C14.8358 7.53911 15.3608 7.59578 15.6492 7.95411C15.9375 8.31245 15.8808 8.83661 15.5225 9.12578L10.5225 13.1491C10.37 13.2716 10.185 13.3333 10 13.3333Z" fill="white"/>
<mask id="mask0_413_3146" style="mask-type:luminance" maskUnits="userSpaceOnUse" x="4" y="7" width="12" height="7">
<path fill-rule="evenodd" clip-rule="evenodd" d="M10 13.3333C9.81001 13.3333 9.62084 13.2691 9.46667 13.1399L4.46667 8.97328C4.11334 8.67911 4.06501 8.15328 4.36001 7.79995C4.65417 7.44661 5.17917 7.39911 5.53334 7.69328L10.0092 11.4233L14.4775 7.82745C14.8358 7.53911 15.3608 7.59578 15.6492 7.95411C15.9375 8.31245 15.8808 8.83661 15.5225 9.12578L10.5225 13.1491C10.37 13.2716 10.185 13.3333 10 13.3333Z" fill="white"/>
</mask>
<g mask="url(#mask0_413_3146)">
<rect width="20" height="20" fill="white"/>
</g>
</svg>
